<svg id="visual" viewBox="0 0 1920 1080" width="1920" height="1080" xmlns="http://www.w3.org/2000/svg" xmlns:xlink="http://www.w3.org/1999/xlink" version="1.1"><rect x="0" y="0" width="1920" height="1080" fill="#FFFFFF"></rect><defs><linearGradient id="grad1_0" x1="43.8%" y1="0%" x2="100%" y2="100%"><stop offset="14.444444444444446%" stop-color="#333333" stop-opacity="1"></stop><stop offset="85.55555555555554%" stop-color="#333333" stop-opacity="1"></stop></linearGradient></defs><defs><linearGradient id="grad1_1" x1="43.8%" y1="0%" x2="100%" y2="100%"><stop offset="14.444444444444446%" stop-color="#333333" stop-opacity="1"></stop><stop offset="85.55555555555554%" stop-color="#929292" stop-opacity="1"></stop></linearGradient></defs><defs><linearGradient id="grad1_2" x1="43.8%" y1="0%" x2="100%" y2="100%"><stop offset="14.444444444444446%" stop-color="#ffffff" stop-opacity="1"></stop><stop offset="85.55555555555554%" stop-color="#929292" stop-opacity="1"></stop></linearGradient></defs><defs><linearGradient id="grad2_0" x1="0%" y1="0%" x2="56.3%" y2="100%"><stop offset="14.444444444444446%" stop-color="#333333" stop-opacity="1"></stop><stop offset="85.55555555555554%" stop-color="#333333" stop-opacity="1"></stop></linearGradient></defs><defs><linearGradient id="grad2_1" x1="0%" y1="0%" x2="56.3%" y2="100%"><stop offset="14.444444444444446%" stop-color="#929292" stop-opacity="1"></stop><stop offset="85.55555555555554%" stop-color="#333333" stop-opacity="1"></stop></linearGradient></defs><defs><linearGradient id="grad2_2" x1="0%" y1="0%" x2="56.3%" y2="100%"><stop offset="14.444444444444446%" stop-color="#929292" stop-opacity="1"></stop><stop offset="85.55555555555554%" stop-color="#ffffff" stop-opacity="1"></stop></linearGradient></defs><g transform="translate(1920, 0)"><path d="M0 810C-34.9 675.2 -69.7 540.4 -146 544.8C-222.2 549.2 -339.8 692.9 -405 701.5C-470.2 710.1 -483 583.7 -492.1 492.1C-501.2 400.6 -506.6 344 -507.5 293C-508.4 242 -504.8 196.5 -554.4 148.6C-604.1 100.7 -707.1 50.3 -810 0L0 0Z" fill="#c7c7c7"></path><path d="M0 540C-23.2 450.1 -46.5 360.2 -97.3 363.2C-148.1 366.1 -226.5 461.9 -270 467.7C-313.5 473.4 -322 389.1 -328.1 328.1C-334.2 267.1 -337.7 229.4 -338.3 195.3C-338.9 161.3 -336.5 131 -369.6 99C-402.7 67.1 -471.4 33.6 -540 0L0 0Z" fill="#606060"></path><path d="M0 270C-11.6 225.1 -23.2 180.1 -48.7 181.6C-74.1 183.1 -113.3 231 -135 233.8C-156.7 236.7 -161 194.6 -164 164C-167.1 133.5 -168.9 114.7 -169.2 97.7C-169.5 80.7 -168.3 65.5 -184.8 49.5C-201.4 33.6 -235.7 16.8 -270 0L0 0Z" fill="#333333"></path></g><g transform="translate(0, 1080)"><path d="M0 -810C80.3 -824 160.6 -837.9 209.6 -782.4C258.7 -726.9 276.5 -601.9 310.5 -537.8C344.5 -473.7 394.8 -470.3 443.4 -443.4C491.9 -416.4 538.7 -365.7 536.1 -309.5C533.4 -253.3 481.3 -191.5 518.7 -139C556.1 -86.5 683.1 -43.2 810 0L0 0Z" fill="#c7c7c7"></path><path d="M0 -540C53.5 -549.3 107.1 -558.6 139.8 -521.6C172.5 -484.6 184.3 -401.3 207 -358.5C229.7 -315.8 263.2 -313.6 295.6 -295.6C327.9 -277.6 359.1 -243.8 357.4 -206.3C355.6 -168.9 320.9 -127.7 345.8 -92.7C370.7 -57.6 455.4 -28.8 540 0L0 0Z" fill="#606060"></path><path d="M0 -270C26.8 -274.7 53.5 -279.3 69.9 -260.8C86.2 -242.3 92.2 -200.6 103.5 -179.3C114.8 -157.9 131.6 -156.8 147.8 -147.8C164 -138.8 179.6 -121.9 178.7 -103.2C177.8 -84.4 160.4 -63.8 172.9 -46.3C185.4 -28.8 227.7 -14.4 270 0L0 0Z" fill="#333333"></path></g></svg>